<mxfile host="app.diagrams.net" agent="Mozilla/5.0 (Windows NT 10.0; Win64; x64) AppleWebKit/537.36 (KHTML, like Gecko) Chrome/129.0.0.0 Safari/537.36" version="24.7.17">
  <diagram name="1 oldal" id="IYyL4PXdDGExNCNDXlfg">
    <mxGraphModel dx="2391" dy="1114" grid="1" gridSize="10" guides="1" tooltips="1" connect="1" arrows="1" fold="1" page="1" pageScale="1" pageWidth="827" pageHeight="1169" math="0" shadow="0">
      <root>
        <mxCell id="0" />
        <mxCell id="1" parent="0" />
        <mxCell id="Dero5Fjb5s4j1B3LeUZW-6" style="edgeStyle=orthogonalEdgeStyle;rounded=0;orthogonalLoop=1;jettySize=auto;html=1;" parent="1" source="Dero5Fjb5s4j1B3LeUZW-1" target="Dero5Fjb5s4j1B3LeUZW-2" edge="1">
          <mxGeometry relative="1" as="geometry" />
        </mxCell>
        <mxCell id="Dero5Fjb5s4j1B3LeUZW-1" value="Start" style="ellipse;whiteSpace=wrap;html=1;" parent="1" vertex="1">
          <mxGeometry x="150" y="30" width="120" height="80" as="geometry" />
        </mxCell>
        <mxCell id="qOB-2drd1Dhv3abfUxcW-3" style="edgeStyle=orthogonalEdgeStyle;rounded=0;orthogonalLoop=1;jettySize=auto;html=1;" edge="1" parent="1" source="Dero5Fjb5s4j1B3LeUZW-2" target="qOB-2drd1Dhv3abfUxcW-1">
          <mxGeometry relative="1" as="geometry" />
        </mxCell>
        <mxCell id="Dero5Fjb5s4j1B3LeUZW-2" value="k=0" style="rounded=0;whiteSpace=wrap;html=1;" parent="1" vertex="1">
          <mxGeometry x="150" y="140" width="120" height="60" as="geometry" />
        </mxCell>
        <mxCell id="qOB-2drd1Dhv3abfUxcW-5" style="edgeStyle=orthogonalEdgeStyle;rounded=0;orthogonalLoop=1;jettySize=auto;html=1;" edge="1" parent="1" source="Dero5Fjb5s4j1B3LeUZW-3" target="Dero5Fjb5s4j1B3LeUZW-18">
          <mxGeometry relative="1" as="geometry" />
        </mxCell>
        <mxCell id="qOB-2drd1Dhv3abfUxcW-7" style="edgeStyle=orthogonalEdgeStyle;rounded=0;orthogonalLoop=1;jettySize=auto;html=1;" edge="1" parent="1" source="Dero5Fjb5s4j1B3LeUZW-3" target="Dero5Fjb5s4j1B3LeUZW-5">
          <mxGeometry relative="1" as="geometry" />
        </mxCell>
        <mxCell id="Dero5Fjb5s4j1B3LeUZW-3" value="n!=1" style="rhombus;whiteSpace=wrap;html=1;" parent="1" vertex="1">
          <mxGeometry x="170" y="330" width="80" height="80" as="geometry" />
        </mxCell>
        <mxCell id="qOB-2drd1Dhv3abfUxcW-8" style="edgeStyle=orthogonalEdgeStyle;rounded=0;orthogonalLoop=1;jettySize=auto;html=1;" edge="1" parent="1" source="Dero5Fjb5s4j1B3LeUZW-5" target="Dero5Fjb5s4j1B3LeUZW-24">
          <mxGeometry relative="1" as="geometry" />
        </mxCell>
        <mxCell id="Dero5Fjb5s4j1B3LeUZW-5" value="j=0" style="rounded=0;whiteSpace=wrap;html=1;" parent="1" vertex="1">
          <mxGeometry x="160" y="440" width="120" height="60" as="geometry" />
        </mxCell>
        <mxCell id="Dero5Fjb5s4j1B3LeUZW-18" value="End" style="ellipse;whiteSpace=wrap;html=1;" parent="1" vertex="1">
          <mxGeometry x="340" y="330" width="120" height="80" as="geometry" />
        </mxCell>
        <mxCell id="qOB-2drd1Dhv3abfUxcW-10" style="edgeStyle=orthogonalEdgeStyle;rounded=0;orthogonalLoop=1;jettySize=auto;html=1;entryX=0;entryY=0.25;entryDx=0;entryDy=0;" edge="1" parent="1" source="Dero5Fjb5s4j1B3LeUZW-24" target="qOB-2drd1Dhv3abfUxcW-9">
          <mxGeometry relative="1" as="geometry" />
        </mxCell>
        <mxCell id="qOB-2drd1Dhv3abfUxcW-13" style="edgeStyle=orthogonalEdgeStyle;rounded=0;orthogonalLoop=1;jettySize=auto;html=1;" edge="1" parent="1" source="Dero5Fjb5s4j1B3LeUZW-24" target="qOB-2drd1Dhv3abfUxcW-12">
          <mxGeometry relative="1" as="geometry" />
        </mxCell>
        <mxCell id="Dero5Fjb5s4j1B3LeUZW-24" value="&lt;div&gt;j&amp;lt;m&amp;amp;&amp;amp;&lt;/div&gt;&lt;div&gt;B[j]!=A[i]&lt;/div&gt;" style="rhombus;whiteSpace=wrap;html=1;" parent="1" vertex="1">
          <mxGeometry x="170" y="570" width="100" height="90" as="geometry" />
        </mxCell>
        <mxCell id="qOB-2drd1Dhv3abfUxcW-15" style="edgeStyle=orthogonalEdgeStyle;rounded=0;orthogonalLoop=1;jettySize=auto;html=1;" edge="1" parent="1" source="Dero5Fjb5s4j1B3LeUZW-36" target="Dero5Fjb5s4j1B3LeUZW-38">
          <mxGeometry relative="1" as="geometry" />
        </mxCell>
        <mxCell id="Dero5Fjb5s4j1B3LeUZW-36" value="C[k] = A[i]" style="rounded=0;whiteSpace=wrap;html=1;" parent="1" vertex="1">
          <mxGeometry x="120" y="840" width="120" height="60" as="geometry" />
        </mxCell>
        <mxCell id="qOB-2drd1Dhv3abfUxcW-17" style="edgeStyle=orthogonalEdgeStyle;rounded=0;orthogonalLoop=1;jettySize=auto;html=1;" edge="1" parent="1" source="Dero5Fjb5s4j1B3LeUZW-38">
          <mxGeometry relative="1" as="geometry">
            <mxPoint x="200" y="210" as="targetPoint" />
            <Array as="points">
              <mxPoint x="10" y="980" />
            </Array>
          </mxGeometry>
        </mxCell>
        <mxCell id="Dero5Fjb5s4j1B3LeUZW-38" value="k=k+1" style="rounded=0;whiteSpace=wrap;html=1;" parent="1" vertex="1">
          <mxGeometry x="150" y="950" width="120" height="60" as="geometry" />
        </mxCell>
        <mxCell id="qOB-2drd1Dhv3abfUxcW-1" value="i=0" style="rounded=0;whiteSpace=wrap;html=1;" vertex="1" parent="1">
          <mxGeometry x="150" y="250" width="120" height="60" as="geometry" />
        </mxCell>
        <mxCell id="qOB-2drd1Dhv3abfUxcW-4" style="edgeStyle=orthogonalEdgeStyle;rounded=0;orthogonalLoop=1;jettySize=auto;html=1;entryX=0.55;entryY=0.088;entryDx=0;entryDy=0;entryPerimeter=0;" edge="1" parent="1" source="qOB-2drd1Dhv3abfUxcW-1" target="Dero5Fjb5s4j1B3LeUZW-3">
          <mxGeometry relative="1" as="geometry" />
        </mxCell>
        <mxCell id="qOB-2drd1Dhv3abfUxcW-19" style="edgeStyle=orthogonalEdgeStyle;rounded=0;orthogonalLoop=1;jettySize=auto;html=1;" edge="1" parent="1" source="qOB-2drd1Dhv3abfUxcW-9">
          <mxGeometry relative="1" as="geometry">
            <mxPoint x="220" y="530" as="targetPoint" />
            <Array as="points">
              <mxPoint x="460" y="540" />
              <mxPoint x="460" y="540" />
            </Array>
          </mxGeometry>
        </mxCell>
        <mxCell id="qOB-2drd1Dhv3abfUxcW-9" value="j=j+1" style="rounded=0;whiteSpace=wrap;html=1;" vertex="1" parent="1">
          <mxGeometry x="400" y="585" width="120" height="60" as="geometry" />
        </mxCell>
        <mxCell id="qOB-2drd1Dhv3abfUxcW-14" style="edgeStyle=orthogonalEdgeStyle;rounded=0;orthogonalLoop=1;jettySize=auto;html=1;" edge="1" parent="1" source="qOB-2drd1Dhv3abfUxcW-12" target="Dero5Fjb5s4j1B3LeUZW-36">
          <mxGeometry relative="1" as="geometry" />
        </mxCell>
        <mxCell id="qOB-2drd1Dhv3abfUxcW-16" style="edgeStyle=orthogonalEdgeStyle;rounded=0;orthogonalLoop=1;jettySize=auto;html=1;" edge="1" parent="1" source="qOB-2drd1Dhv3abfUxcW-12">
          <mxGeometry relative="1" as="geometry">
            <mxPoint x="210" y="220" as="targetPoint" />
            <Array as="points">
              <mxPoint x="80" y="740" />
            </Array>
          </mxGeometry>
        </mxCell>
        <mxCell id="qOB-2drd1Dhv3abfUxcW-12" value="j&amp;lt;m" style="rhombus;whiteSpace=wrap;html=1;" vertex="1" parent="1">
          <mxGeometry x="160" y="700" width="80" height="80" as="geometry" />
        </mxCell>
        <mxCell id="qOB-2drd1Dhv3abfUxcW-20" value="h" style="text;html=1;align=center;verticalAlign=middle;whiteSpace=wrap;rounded=0;" vertex="1" parent="1">
          <mxGeometry x="260" y="340" width="60" height="30" as="geometry" />
        </mxCell>
        <mxCell id="qOB-2drd1Dhv3abfUxcW-21" value="i" style="text;html=1;align=center;verticalAlign=middle;whiteSpace=wrap;rounded=0;" vertex="1" parent="1">
          <mxGeometry x="150" y="410" width="60" height="30" as="geometry" />
        </mxCell>
        <mxCell id="qOB-2drd1Dhv3abfUxcW-22" value="i" style="text;html=1;align=center;verticalAlign=middle;whiteSpace=wrap;rounded=0;" vertex="1" parent="1">
          <mxGeometry x="310" y="570" width="60" height="30" as="geometry" />
        </mxCell>
        <mxCell id="qOB-2drd1Dhv3abfUxcW-23" value="h" style="text;html=1;align=center;verticalAlign=middle;whiteSpace=wrap;rounded=0;" vertex="1" parent="1">
          <mxGeometry x="230" y="680" width="60" height="30" as="geometry" />
        </mxCell>
        <mxCell id="qOB-2drd1Dhv3abfUxcW-24" value="h" style="text;html=1;align=center;verticalAlign=middle;whiteSpace=wrap;rounded=0;" vertex="1" parent="1">
          <mxGeometry x="60" y="520" width="60" height="30" as="geometry" />
        </mxCell>
        <mxCell id="qOB-2drd1Dhv3abfUxcW-25" value="i" style="text;html=1;align=center;verticalAlign=middle;whiteSpace=wrap;rounded=0;" vertex="1" parent="1">
          <mxGeometry x="200" y="800" width="60" height="30" as="geometry" />
        </mxCell>
      </root>
    </mxGraphModel>
  </diagram>
</mxfile>
